<?xml version="1.0" standalone="no"?>
<!DOCTYPE svg PUBLIC "-//W3C//DTD SVG 20010904//EN"
 "http://www.w3.org/TR/2001/REC-SVG-20010904/DTD/svg10.dtd">
<svg version="1.0" xmlns="http://www.w3.org/2000/svg"
 width="879.000000pt" height="879.000000pt" viewBox="0 0 879.000000 879.000000"
 preserveAspectRatio="xMidYMid meet">

<g transform="translate(0.000000,879.000000) scale(0.100000,-0.100000)"
fill="#000000" stroke="none">
<path d="M4076 8770 c-782 -61 -1507 -314 -2151 -751 -526 -357 -982 -844
-1310 -1399 -37 -63 -108 -196 -156 -294 -288 -583 -428 -1157 -446 -1821 -26
-992 282 -1954 877 -2744 1061 -1407 2842 -2040 4560 -1620 613 150 1185 434
1700 845 147 118 482 445 602 589 766 918 1125 2093 1002 3275 -121 1172 -703
2236 -1626 2973 -653 521 -1425 839 -2266 933 -161 18 -630 26 -786 14z"/>
</g>
</svg>
