<?xml version="1.0" encoding="UTF-8"?>
<svg version="1.1" xmlns="http://www.w3.org/2000/svg" width="256" height="256">
<path d="M0 0 C84.48 0 168.96 0 256 0 C256 84.48 256 168.96 256 256 C171.52 256 87.04 256 0 256 C0 171.52 0 87.04 0 0 Z " fill="#171719" transform="translate(0,0)"/>
<path d="M0 0 C84.48 0 168.96 0 256 0 C256 84.48 256 168.96 256 256 C171.52 256 87.04 256 0 256 C0 171.52 0 87.04 0 0 Z M97 11 C96.26483154 11.18812256 95.52966309 11.37624512 94.7722168 11.57006836 C64.71506293 19.30422738 39.13627308 40.82825415 23.13427734 67.04736328 C12.50329638 85.34839335 7.38584304 105.22394862 7.625 126.3125 C7.62932037 127.03611725 7.63364075 127.7597345 7.63809204 128.50527954 C7.88565239 163.87808851 21.62151019 192.58500368 46.39453125 217.3984375 C69.14584824 238.90465754 100.257784 249.91720664 131.375 249.33203125 C164.92109547 247.86800445 194.19796349 233.77138041 217.4609375 209.84375 C226.58363706 199.6263265 233.52437005 188.53310855 239 176 C239.28746094 175.34386719 239.57492188 174.68773437 239.87109375 174.01171875 C246.4995124 158.52504476 248.26369853 143.57503893 248.375 126.875 C248.3830365 126.20235107 248.391073 125.52970215 248.39935303 124.83666992 C248.51607425 111.94152983 246.77674369 99.64667775 242.3125 87.5 C242.05831299 86.79915283 241.80412598 86.09830566 241.54223633 85.3762207 C230.15023822 55.08052984 206.63883207 31.60664166 177.78125 17.6328125 C170.76462473 14.49636598 163.40300013 12.04819325 156 10 C155.29206299 9.80204834 154.58412598 9.60409668 153.85473633 9.40014648 C146.18939365 7.56252513 138.41336158 7.6626284 130.57885742 7.68432617 C128.20249235 7.6874801 125.8273834 7.66397947 123.45117188 7.63867188 C114.22272875 7.60018445 105.93065087 8.43302526 97 11 Z " fill="#E92E3F" transform="translate(0,0)"/>
<path d="M0 0 C5.78013115 2.74648719 11.25834258 6.12506485 16.7109375 9.46484375 C17.64550781 10.03654297 18.58007812 10.60824219 19.54296875 11.19726562 C21.46022288 12.37538523 23.37155084 13.56319444 25.27734375 14.75976562 C26.20417969 15.32244141 27.13101563 15.88511719 28.0859375 16.46484375 C29.3241626 17.23235962 29.3241626 17.23235962 30.58740234 18.01538086 C33.61948612 19.25282205 34.91371677 19.03093982 38 18 C39.86710007 17.06267943 41.69650557 16.04825099 43.4921875 14.98046875 C44.52730469 14.37009766 45.56242187 13.75972656 46.62890625 13.13085938 C47.70011719 12.48955078 48.77132812 11.84824219 49.875 11.1875 C53.00990284 9.33125753 56.14488538 7.47527236 59.28417969 5.62646484 C60.88635377 4.66694635 62.4765881 3.68604616 64.03613281 2.65869141 C67.46174368 0.45429236 70.56055914 -0.78034166 74.68798828 -0.55175781 C80.05800004 0.7297867 84.72752875 3.84323445 89.4375 6.625 C90.51837891 7.24246094 91.59925781 7.85992187 92.71289062 8.49609375 C98.9705644 12.10118173 105.05509723 15.89987042 111 20 C107.95241985 23.35256817 104.85647297 25.38452292 100.87890625 27.53125 C100.2971312 27.84904419 99.71535614 28.16683838 99.11595154 28.4942627 C97.26831382 29.5028054 95.41595339 30.50219087 93.5625 31.5 C91.71303668 32.49852179 89.86484452 33.49914503 88.01976013 34.5057373 C86.34356591 35.41985389 84.66322612 36.32635678 82.98266602 37.23242188 C80.08860511 38.94749112 77.56805853 40.83354433 75 43 C75.60884033 43.35715088 76.21768066 43.71430176 76.8449707 44.08227539 C83.57557498 48.03430081 90.29376532 52.00675885 97 56 C97.67885254 56.40331543 98.35770508 56.80663086 99.05712891 57.22216797 C100.58662053 58.13672284 102.10650561 59.06729961 103.625 60 C104.40101563 60.474375 105.17703125 60.94875 105.9765625 61.4375 C109.02628473 63.79249786 111.61199238 66.0201805 112.38397217 69.95922852 C112.5453449 72.33534156 112.58057896 74.68090964 112.56640625 77.0625 C112.57260483 77.93140869 112.57880341 78.80031738 112.58518982 79.69555664 C112.59227575 81.52782066 112.58913539 83.36014924 112.57641602 85.19238281 C112.56254242 87.9914416 112.5966452 90.78716046 112.63476562 93.5859375 C112.63571683 95.36979248 112.63385794 97.15365164 112.62890625 98.9375 C112.64216446 99.77095947 112.65542267 100.60441895 112.66908264 101.46313477 C112.60327503 105.58133235 112.41981136 107.44895566 109.86083984 110.80786133 C106.85525944 113.11090847 103.83486422 115.17077536 100.59765625 117.13671875 C99.99747177 117.50223343 99.39728729 117.86774811 98.77891541 118.24433899 C97.51789055 119.00988989 96.25471437 119.7719074 94.98950195 120.53051758 C93.06561985 121.68562683 91.15069122 122.85458863 89.23632812 124.02539062 C88.00311315 124.77167506 86.7694052 125.51714561 85.53515625 126.26171875 C84.425354 126.93162842 83.31555176 127.60153809 82.17211914 128.29174805 C79 130 79 130 73 132 C72.67 117.81 72.34 103.62 72 89 C67.91625 91.35125 63.8325 93.7025 59.625 96.125 C57.72548584 97.21772217 57.72548584 97.21772217 55.78759766 98.33251953 C54.75683105 98.92661621 53.72606445 99.52071289 52.6640625 100.1328125 C51.53645508 100.78024414 50.40884766 101.42767578 49.24707031 102.09472656 C45.4638302 104.3146067 41.76738764 106.65726786 38.09912109 109.06201172 C36 110 36 110 34.13500977 109.88476562 C31.07863632 108.6181793 28.27479921 106.98187886 25.44140625 105.2890625 C24.81523911 104.9202597 24.18907196 104.55145691 23.54393005 104.17147827 C21.54731223 102.99399806 19.55489782 101.8096039 17.5625 100.625 C16.22618057 99.83548182 14.88959469 99.04641447 13.55273438 98.2578125 C8.35741217 95.1901739 3.17362518 92.10417511 -2 89 C-2.33 103.19 -2.66 117.38 -3 132 C-7.33633071 130.55455643 -10.2970011 129.4255403 -14.08203125 127.171875 C-15.01466797 126.61886719 -15.94730469 126.06585938 -16.90820312 125.49609375 C-17.86662109 124.91988281 -18.82503906 124.34367187 -19.8125 123.75 C-20.75931641 123.18925781 -21.70613281 122.62851563 -22.68164062 122.05078125 C-25.46876618 120.3896314 -28.2361093 118.69947 -31 117 C-31.85770996 116.48888672 -32.71541992 115.97777344 -33.59912109 115.45117188 C-34.79335693 114.70963867 -34.79335693 114.70963867 -36.01171875 113.953125 C-36.71127686 113.52676758 -37.41083496 113.10041016 -38.1315918 112.66113281 C-41.85321941 109.35237098 -42.90061535 105.90459517 -43.43579102 101.03344727 C-43.47548925 99.54478972 -43.49733362 98.05557852 -43.50390625 96.56640625 C-43.51389145 95.77024399 -43.52387665 94.97408173 -43.53416443 94.15379333 C-43.54928834 92.47717453 -43.556392 90.80046624 -43.5559082 89.1237793 C-43.56247418 86.57253129 -43.61701782 84.02517058 -43.67382812 81.47460938 C-43.68263128 79.83855486 -43.68858477 78.20248202 -43.69140625 76.56640625 C-43.7129628 75.81202774 -43.73451935 75.05764923 -43.75672913 74.28041077 C-43.68978422 69.05187887 -42.3067644 66.24534335 -38.67591858 62.48509216 C-36.31915432 60.39667798 -33.89078664 58.85317252 -31.12109375 57.359375 C-30.03505859 56.76382813 -28.94902344 56.16828125 -27.83007812 55.5546875 C-26.71052734 54.95914063 -25.59097656 54.36359375 -24.4375 53.75 C-22.20685815 52.53677655 -19.97638321 51.32324615 -17.74609375 50.109375 C-16.27160767 49.31998535 -16.27160767 49.31998535 -14.76733398 48.51464844 C-12.90504355 47.49535864 -11.07044609 46.42395713 -9.26586914 45.30566406 C-7 44 -7 44 -5 44 C-5 43.34 -5 42.68 -5 42 C-5.68626465 41.74927734 -6.3725293 41.49855469 -7.07958984 41.24023438 C-10.46207055 39.80376874 -13.5726573 38.02640112 -16.7265625 36.15625 C-17.35605804 35.78649048 -17.98555359 35.41673096 -18.63412476 35.0357666 C-19.95788072 34.25739341 -21.28067013 33.47737433 -22.60253906 32.69580078 C-24.62364917 31.50079869 -26.6474706 30.31050497 -28.671875 29.12109375 C-29.96109687 28.36224986 -31.25016473 27.60314424 -32.5390625 26.84375 C-33.14223297 26.48849243 -33.74540344 26.13323486 -34.36685181 25.76721191 C-36.95757745 24.23479633 -39.4945384 22.67030773 -42 21 C-42 20.34 -42 19.68 -42 19 C-40.98800537 18.45641846 -40.98800537 18.45641846 -39.95556641 17.90185547 C-36.84403994 16.22871129 -33.73451556 14.55187826 -30.625 12.875 C-29.56410156 12.30523437 -28.50320312 11.73546875 -27.41015625 11.1484375 C-21.5355965 7.97689604 -15.77117669 4.71358687 -10.12817383 1.14404297 C-6.58772585 -0.75919659 -3.86987019 -1.07823769 0 0 Z " fill="#EB2A3D" transform="translate(93,62)"/>
<path d="M0 0 C0.33 0 0.66 0 1 0 C1 37.95 1 75.9 1 115 C-37.94 115 -76.88 115 -117 115 C-117 114.67 -117 114.34 -117 114 C-115.8140625 113.84144531 -114.628125 113.68289062 -113.40625 113.51953125 C-79.97009583 108.80600333 -48.47254006 93.96375417 -27.3671875 66.6796875 C-12.06519354 46.13486019 -4.55360715 25.09756532 0 0 Z " fill="#FEFDFD" transform="translate(255,141)"/>
<path d="M0 0 C0.33 0 0.66 0 1 0 C1.07927734 0.61705811 1.15855469 1.23411621 1.24023438 1.86987305 C6.01305111 37.53744892 21.56128838 68.95815851 50.31982422 91.29125977 C70.92019451 106.6917196 93.56846637 114.2945177 119 117 C119 117.33 119 117.66 119 118 C79.73 118 40.46 118 0 118 C0 79.06 0 40.12 0 0 Z " fill="#FEFDFD" transform="translate(0,138)"/>
<path d="M0 0 C38.28 0 76.56 0 116 0 C116 39.27 116 78.54 116 119 C115.67 119 115.34 119 115 119 C114.86464844 117.72769531 114.72929687 116.45539063 114.58984375 115.14453125 C111.00470114 84.67374332 98.94210683 60.27052405 78 38 C77.4740625 37.40960938 76.948125 36.81921875 76.40625 36.2109375 C56.57324792 14.86010363 27.99319189 5.17292288 0 1 C0 0.67 0 0.34 0 0 Z " fill="#FEFDFD" transform="translate(140,0)"/>
<path d="M0 0 C4.63707703 1.54569234 7.75375082 2.86274227 11.80859375 5.3359375 C12.88560547 5.98820312 13.96261719 6.64046875 15.07226562 7.3125 C16.18279297 7.993125 17.29332031 8.67375 18.4375 9.375 C21.68708199 11.35086697 24.93729181 13.32535039 28.19482422 15.28808594 C29.87000035 16.31039534 31.53308571 17.35362992 33.16845703 18.43847656 C35.11500238 19.75267189 35.11500238 19.75267189 38 21 C41.60344275 19.88584567 44.72050123 18.09690987 47.94921875 16.171875 C48.88056641 15.61886719 49.81191406 15.06585938 50.77148438 14.49609375 C51.73376953 13.91988281 52.69605469 13.34367187 53.6875 12.75 C54.63044922 12.18925781 55.57339844 11.62851563 56.54492188 11.05078125 C62.20978426 7.68186573 62.20978426 7.68186573 67.83056641 4.24023438 C68.7179248 3.69173828 69.6052832 3.14324219 70.51953125 2.578125 C71.70639526 1.8341748 71.70639526 1.8341748 72.91723633 1.07519531 C75 0 75 0 78 0 C78 29.04 78 58.08 78 88 C77.67 88 77.34 88 77 88 C76.67 73.81 76.34 59.62 76 45 C71.91625 47.35125 67.8325 49.7025 63.625 52.125 C62.35865723 52.85348145 61.09231445 53.58196289 59.78759766 54.33251953 C58.75683105 54.92661621 57.72606445 55.52071289 56.6640625 56.1328125 C55.53645508 56.78024414 54.40884766 57.42767578 53.24707031 58.09472656 C49.4638302 60.3146067 45.76738764 62.65726786 42.09912109 65.06201172 C40 66 40 66 38.13500977 65.88476562 C35.07863632 64.6181793 32.27479921 62.98187886 29.44140625 61.2890625 C28.81523911 60.9202597 28.18907196 60.55145691 27.54393005 60.17147827 C25.54731223 58.99399806 23.55489782 57.8096039 21.5625 56.625 C20.22618057 55.83548182 18.88959469 55.04641447 17.55273438 54.2578125 C12.35741217 51.1901739 7.17362518 48.10417511 2 45 C1.67 59.19 1.34 73.38 1 88 C0.67 88 0.34 88 0 88 C0 58.96 0 29.92 0 0 Z " fill="#A72025" transform="translate(89,106)"/>
<path d="M0 0 C37.95 0 75.9 0 115 0 C115 0.33 115 0.66 115 1 C114.04222656 1.15855469 113.08445312 1.31710938 112.09765625 1.48046875 C77.46418194 7.44265369 45.84892954 23.66875404 24.8125 52.6875 C11.66156449 71.55634723 3.88784934 92.22724517 1 115 C0.67 115 0.34 115 0 115 C0 77.05 0 39.1 0 0 Z " fill="#FEFDFD" transform="translate(0,0)"/>
<path d="M0 0 C0 14.19 0 28.38 0 43 C-2.31 43.99 -4.62 44.98 -7 46 C-9.33769445 47.29272963 -11.63341384 48.60366586 -13.921875 49.9765625 C-14.54854065 50.34727875 -15.1752063 50.717995 -15.82086182 51.09994507 C-17.7996254 52.27099903 -19.77507625 53.44748371 -21.75 54.625 C-23.73948735 55.80916136 -25.72969308 56.99204079 -27.72198486 58.17147827 C-28.95574453 58.90202694 -30.18787632 59.63533366 -31.41815186 60.37173462 C-33.93478563 61.86333063 -36.21292314 63.07097438 -39 64 C-39.22300529 58.12867095 -39.3860246 52.25981949 -39.49438477 46.38525391 C-39.53956174 44.38872331 -39.60092086 42.39248914 -39.67895508 40.39697266 C-40.3088154 23.87240174 -40.3088154 23.87240174 -37.25317383 19.50097656 C-34.88657217 17.90535398 -32.68247269 16.95823089 -30 16 C-28.56771618 15.17451792 -27.1513716 14.32064675 -25.75390625 13.4375 C-24.35841361 12.62218171 -22.96125735 11.80970457 -21.5625 11 C-20.08171483 10.13856452 -18.60124476 9.27658716 -17.12109375 8.4140625 C-16.41581543 8.00317383 -15.71053711 7.59228516 -14.98388672 7.16894531 C-11.5784709 5.16240693 -8.22592961 3.06931449 -4.8828125 0.9609375 C-3 0 -3 0 0 0 Z " fill="#C62127" transform="translate(167,106)"/>
<path d="M0 0 C5.78013115 2.74648719 11.25834258 6.12506485 16.7109375 9.46484375 C17.64550781 10.03654297 18.58007812 10.60824219 19.54296875 11.19726562 C21.46022288 12.37538523 23.37155084 13.56319444 25.27734375 14.75976562 C26.20417969 15.32244141 27.13101563 15.88511719 28.0859375 16.46484375 C29.3241626 17.23235962 29.3241626 17.23235962 30.58740234 18.01538086 C33.62139301 19.25360028 34.91158684 19.0325379 38 18 C39.89051905 17.05096767 41.74329688 16.02476823 43.5625 14.9453125 C45.12871094 14.02298828 45.12871094 14.02298828 46.7265625 13.08203125 C48.34691406 12.11330078 48.34691406 12.11330078 50 11.125 C51.62035156 10.16787109 51.62035156 10.16787109 53.2734375 9.19140625 C59.02825213 5.79165769 59.02825213 5.79165769 64.72265625 2.29248047 C67 1 67 1 69 1 C69 1.66 69 2.32 69 3 C68.35562988 3.3623877 67.71125977 3.72477539 67.04736328 4.09814453 C64.07242391 5.77231363 61.09870811 7.44864494 58.125 9.125 C57.11179687 9.69476563 56.09859375 10.26453125 55.0546875 10.8515625 C54.04921875 11.41875 53.04375 11.9859375 52.0078125 12.5703125 C51.00137695 13.13395508 49.99494141 13.69759766 48.95800781 14.27832031 C47.01297536 15.41040754 45.09836345 16.5967598 43.22167969 17.83886719 C42.36219727 18.40508789 41.50271484 18.97130859 40.6171875 19.5546875 C39.86808105 20.07272949 39.11897461 20.59077148 38.34716797 21.12451172 C34.94118821 22.39493437 33.27188016 21.45030885 30 20 C27.99810281 18.91934469 26.02718328 17.77990896 24.0859375 16.59375 C22.99539062 15.93246094 21.90484375 15.27117187 20.78125 14.58984375 C19.09515625 13.55537109 19.09515625 13.55537109 17.375 12.5 C15.13424272 11.13304909 12.89140809 9.76957217 10.6484375 8.40625 C9.66020996 7.80103516 8.67198242 7.19582031 7.65380859 6.57226562 C2.19389697 3.33750657 -1.60396739 1.91793655 -8 3 C-11.77015009 4.55937399 -15.16192823 6.60429271 -18.625 8.75 C-19.52734375 9.28882812 -20.4296875 9.82765625 -21.359375 10.3828125 C-23.91390905 11.90957483 -26.45702826 13.45408899 -29 15 C-35.65753425 19 -35.65753425 19 -38 19 C-35.00983543 22.25744684 -31.97531267 24.36026445 -28.1328125 26.53125 C-26.99972656 27.17707031 -25.86664063 27.82289062 -24.69921875 28.48828125 C-23.50801407 29.15921217 -22.31660614 29.82978234 -21.125 30.5 C-18.79249042 31.81981859 -16.46249114 33.14392707 -14.1328125 34.46875 C-13.10043457 35.05076172 -12.06805664 35.63277344 -11.00439453 36.23242188 C-7.91033207 38.05275441 -4.90356183 39.88693951 -2 42 C-2 42.66 -2 43.32 -2 44 C-2.99 44 -3.98 44 -5 44 C-5 43.34 -5 42.68 -5 42 C-5.68626465 41.74927734 -6.3725293 41.49855469 -7.07958984 41.24023438 C-10.46207055 39.80376874 -13.5726573 38.02640112 -16.7265625 36.15625 C-17.35605804 35.78649048 -17.98555359 35.41673096 -18.63412476 35.0357666 C-19.95788072 34.25739341 -21.28067013 33.47737433 -22.60253906 32.69580078 C-24.62364917 31.50079869 -26.6474706 30.31050497 -28.671875 29.12109375 C-29.96109687 28.36224986 -31.25016473 27.60314424 -32.5390625 26.84375 C-33.14223297 26.48849243 -33.74540344 26.13323486 -34.36685181 25.76721191 C-36.95757745 24.23479633 -39.4945384 22.67030773 -42 21 C-42 20.34 -42 19.68 -42 19 C-40.98800537 18.45641846 -40.98800537 18.45641846 -39.95556641 17.90185547 C-36.84403994 16.22871129 -33.73451556 14.55187826 -30.625 12.875 C-29.56410156 12.30523437 -28.50320312 11.73546875 -27.41015625 11.1484375 C-21.5355965 7.97689604 -15.77117669 4.71358687 -10.12817383 1.14404297 C-6.58772585 -0.75919659 -3.86987019 -1.07823769 0 0 Z " fill="#E04051" transform="translate(93,62)"/>
<path d="M0 0 C0 0.99 0 1.98 0 3 C-0.72590332 3.4031543 -1.45180664 3.80630859 -2.19970703 4.22167969 C-4.91811661 5.73301645 -7.63524856 7.2466192 -10.3515625 8.76171875 C-12.09539159 9.73350016 -13.84065285 10.70271016 -15.5859375 11.671875 C-16.69453125 12.290625 -17.803125 12.909375 -18.9453125 13.546875 C-19.96125488 14.11245117 -20.97719727 14.67802734 -22.02392578 15.26074219 C-27.95501168 18.40825011 -27.95501168 18.40825011 -32.35400391 23.25415039 C-33.19384715 26.82396026 -33.3246783 30.28640372 -33.3359375 33.93359375 C-33.3425943 34.68915054 -33.3492511 35.44470734 -33.35610962 36.22315979 C-33.36620153 37.81582212 -33.37092771 39.40852644 -33.37060547 41.0012207 C-33.37498044 43.42665744 -33.41133785 45.85027516 -33.44921875 48.27539062 C-33.45508751 49.82811882 -33.45905651 51.3808556 -33.4609375 52.93359375 C-33.48249405 54.01198769 -33.48249405 54.01198769 -33.50448608 55.11216736 C-33.45860056 60.21383362 -32.20582804 63.07386361 -29 67 C-26.24881279 69.16385982 -26.24881279 69.16385982 -23.25 70.875 C-22.26515625 71.47054687 -21.2803125 72.06609375 -20.265625 72.6796875 C-19.51796875 73.11539063 -18.7703125 73.55109375 -18 74 C-18.99 74.495 -18.99 74.495 -20 75 C-22.71484375 73.70703125 -22.71484375 73.70703125 -25.9375 71.8125 C-26.99839844 71.20019531 -28.05929688 70.58789062 -29.15234375 69.95703125 C-32.92126061 67.36687028 -34.56223248 65.31330256 -36 61 C-36.300179 55.78566257 -36.35602548 50.57222158 -36.4050293 45.35009766 C-36.42658954 43.62365695 -36.46066964 41.89732498 -36.50756836 40.17138672 C-36.57482784 37.67105753 -36.60206719 35.17298315 -36.62109375 32.671875 C-36.64892441 31.90808533 -36.67675507 31.14429565 -36.70542908 30.35736084 C-36.68539902 25.08323954 -35.34855526 22.27151346 -31.6783905 18.48138428 C-29.31849285 16.39848684 -26.88979247 14.85263633 -24.12109375 13.359375 C-23.03505859 12.76382813 -21.94902344 12.16828125 -20.83007812 11.5546875 C-19.71052734 10.95914063 -18.59097656 10.36359375 -17.4375 9.75 C-15.20685815 8.53677655 -12.97638321 7.32324615 -10.74609375 6.109375 C-9.76310303 5.58311523 -8.7801123 5.05685547 -7.76733398 4.51464844 C-5.13499593 3.0738875 -2.56168616 1.56231014 0 0 Z " fill="#D6404F" transform="translate(86,106)"/>
<path d="M0 0 C0.99 0.495 0.99 0.495 2 1 C2 14.53 2 28.06 2 42 C10.1671774 37.94818363 10.1671774 37.94818363 17.9375 33.4140625 C19.43216797 32.48400391 19.43216797 32.48400391 20.95703125 31.53515625 C23.01864948 30.24102106 25.07849455 28.94405761 27.13671875 27.64453125 C28.12285156 27.03222656 29.10898438 26.41992188 30.125 25.7890625 C31.01445312 25.22912598 31.90390625 24.66918945 32.8203125 24.09228516 C33.53960937 23.73183105 34.25890625 23.37137695 35 23 C35.66 23.33 36.32 23.66 37 24 C30.1287128 28.73764346 23.02476395 33.04962445 15.84033203 37.28857422 C13.97346518 38.39066463 12.10967229 39.49782888 10.24609375 40.60546875 C9.06007283 41.30759074 7.87388142 42.00942483 6.6875 42.7109375 C5.08455078 43.65912354 5.08455078 43.65912354 3.44921875 44.62646484 C1 46 1 46 0 46 C0 30.82 0 15.64 0 0 Z " fill="#EC4153" transform="translate(167,148)"/>
<path d="M0 0 C0.53109375 0.73605469 1.0621875 1.47210938 1.609375 2.23046875 C4.23616342 5.27359455 6.87303949 7.14684054 10.25 9.3125 C11.32765625 10.00988281 12.4053125 10.70726562 13.515625 11.42578125 C14.33546875 11.94527344 15.1553125 12.46476563 16 13 C15.01 13.495 15.01 13.495 14 14 C11.28515625 12.70703125 11.28515625 12.70703125 8.0625 10.8125 C7.00160156 10.20019531 5.94070312 9.58789062 4.84765625 8.95703125 C2.18641037 7.12810918 0.53458955 5.82568335 -1 3 C-0.67 2.01 -0.34 1.02 0 0 Z " fill="#E34152" transform="translate(52,167)"/>
<path d="M0 0 C0.99 0.33 1.98 0.66 3 1 C2.44570313 1.30292969 1.89140625 1.60585937 1.3203125 1.91796875 C-3.37223874 4.55880713 -3.37223874 4.55880713 -6.5 8.8125 C-6.665 9.534375 -6.83 10.25625 -7 11 C-7.66 9.68 -8.32 8.36 -9 7 C-7.87720538 6.01830524 -6.75168527 5.03972702 -5.625 4.0625 C-4.68527344 3.24458984 -4.68527344 3.24458984 -3.7265625 2.41015625 C-2 1 -2 1 0 0 Z " fill="#E34253" transform="translate(60,121)"/>
<path d="M0 0 C1 3 1 3 0 6 C-1.65 6.33 -3.3 6.66 -5 7 C-4.75 4.625 -4.75 4.625 -4 2 C-1.9375 0.6875 -1.9375 0.6875 0 0 Z " fill="#222022" transform="translate(165,150)"/>
<path d="M0 0 C0.66 0 1.32 0 2 0 C1.43628586 3.26954202 0.50037734 4.82575883 -2 7 C-2.99 6.67 -3.98 6.34 -5 6 C-4.34 5.67 -3.68 5.34 -3 5 C-2.30062468 3.68352881 -1.63270867 2.34977849 -1 1 C-0.67 0.67 -0.34 0.34 0 0 Z " fill="#1F1C1E" transform="translate(205,74)"/>
<path d="M0 0 C0.66 0.99 1.32 1.98 2 3 C0.8553125 3.8971875 0.8553125 3.8971875 -0.3125 4.8125 C-2.3483575 6.46959332 -4.1978279 8.10297674 -6 10 C-4.79157144 5.56909529 -3.48331435 3.01887244 0 0 Z " fill="#241A1D" transform="translate(204,170)"/>
</svg>
